<?xml version="1.0" encoding="UTF-8" standalone="no"?><!DOCTYPE svg PUBLIC "-//W3C//DTD SVG 1.1//EN" "http://www.w3.org/Graphics/SVG/1.1/DTD/svg11.dtd"><svg width="100%" height="100%" viewBox="0 0 8000 4500" version="1.1" xmlns="http://www.w3.org/2000/svg" xmlns:xlink="http://www.w3.org/1999/xlink" xml:space="preserve" xmlns:serif="http://www.serif.com/" style="fill-rule:evenodd;clip-rule:evenodd;stroke-linejoin:round;stroke-miterlimit:2;"><path d="M1676.83,4500l-1676.83,0l0,-4500l5166.67,0c75.956,270.529 525.83,716.527 1166.67,1000c560.869,248.1 1258.31,346.732 1666.67,333.333l0,3166.67l-1676.83,0c0,-298.954 -311.01,-541.667 -694.087,-541.667c-155.653,0 -299.408,40.072 -415.245,107.713c-90.251,52.542 -201.771,52.543 -292.023,0.002c-115.835,-67.643 -259.591,-107.715 -415.244,-107.715c-138.628,0 -267.818,31.785 -376.25,86.52c-81.992,41.214 -178.648,41.215 -260.641,0.001c-108.431,-54.736 -237.621,-86.521 -376.249,-86.521c-155.653,0 -299.409,40.072 -415.246,107.713c-90.25,52.542 -201.771,52.543 -292.022,0.002c-115.836,-67.643 -259.591,-107.715 -415.244,-107.715c-383.077,0 -694.087,242.713 -694.087,541.667Z" style="fill:url(#_Linear1);"/><defs><linearGradient id="_Linear1" x1="0" y1="0" x2="1" y2="0" gradientUnits="userSpaceOnUse" gradientTransform="matrix(-4666.67,7000,-7000,-4666.67,6750,0)"><stop offset="0" style="stop-color:#e51937;stop-opacity:1"/><stop offset="0.51" style="stop-color:#e93133;stop-opacity:1"/><stop offset="0.68" style="stop-color:#f26c29;stop-opacity:1"/><stop offset="0.83" style="stop-color:#fbac1e;stop-opacity:1"/><stop offset="0.92" style="stop-color:#fcb21d;stop-opacity:0.78"/><stop offset="1" style="stop-color:#ffca19;stop-opacity:0"/></linearGradient></defs></svg>