<?xml version="1.0" encoding="UTF-8" standalone="no"?><!DOCTYPE svg PUBLIC "-//W3C//DTD SVG 1.1//EN" "http://www.w3.org/Graphics/SVG/1.1/DTD/svg11.dtd"><svg width="100%" height="100%" viewBox="0 0 8000 4500" version="1.1" xmlns="http://www.w3.org/2000/svg" xmlns:xlink="http://www.w3.org/1999/xlink" xml:space="preserve" xmlns:serif="http://www.serif.com/" style="fill-rule:evenodd;clip-rule:evenodd;stroke-linejoin:round;stroke-miterlimit:2;"><path id="bg2" d="M8000,4500c-51.715,-42.784 -169.697,-75.786 -240.019,-94.628c-64.387,-17.253 -128.967,-20.911 -190.202,-12.815c-60.35,8.079 -121.427,-8.287 -169.651,-45.459c-48.984,-37.628 -106.741,-66.75 -171.127,-84.002c-68.012,-18.224 -136.24,-21.279 -200.509,-11.337c-50.9,7.713 -102.71,-6.17 -142.933,-38.301c-50.69,-40.743 -111.304,-72.211 -179.316,-90.434c-86.11,-23.074 -172.566,-21.832 -250.917,-0.676c-138.074,37.07 -285.246,17.236 -408.581,-55.062c-116.303,-68.335 -260.953,-108.953 -417.663,-108.953c-155.653,0 -299.408,40.072 -415.245,107.713c-90.251,52.542 -201.771,52.543 -292.023,0.002c-115.835,-67.643 -259.591,-107.715 -415.244,-107.715c-138.628,0 -267.818,31.785 -376.25,86.52c-81.992,41.214 -178.648,41.215 -260.641,0.001c-108.431,-54.736 -237.621,-86.521 -376.249,-86.521c-155.653,0 -299.409,40.072 -415.246,107.713c-90.25,52.542 -201.771,52.543 -292.022,0.002c-115.836,-67.643 -259.591,-107.715 -415.244,-107.715c-160.159,0 -307.721,42.425 -425.225,113.652c-129.035,77.858 -284.947,97.612 -429.323,54.394c-81.695,-24.969 -173.045,-27.729 -264.009,-3.355c-69.176,18.535 -130.699,50.772 -181.911,92.538c-40.706,32.994 -93.511,47.143 -145.261,38.922c-65.234,-10.564 -134.632,-7.72 -203.808,10.815c-63.258,16.95 -120.117,45.357 -168.541,82.03c-47.698,36.322 -107.772,52.418 -167.241,44.81c-60.273,-7.545 -123.717,-3.717 -186.976,13.233c-70.321,18.842 -146.908,51.844 -198.623,94.628l0,-4500l5846.18,0c153.149,269 562.376,631.808 1112.15,875c328.894,145.486 704.749,239.575 1041.67,289.805l0,3335.2Z" style="fill:url(#_Linear1);"/><defs><linearGradient id="_Linear1" x1="0" y1="0" x2="1" y2="0" gradientUnits="userSpaceOnUse" gradientTransform="matrix(-4666.67,7000,-7000,-4666.67,6750,0)"><stop offset="0" style="stop-color:#e51937;stop-opacity:1"/><stop offset="0.51" style="stop-color:#e93133;stop-opacity:1"/><stop offset="0.68" style="stop-color:#f26c29;stop-opacity:1"/><stop offset="0.83" style="stop-color:#fbac1e;stop-opacity:1"/><stop offset="0.92" style="stop-color:#fcb21d;stop-opacity:0.78"/><stop offset="1" style="stop-color:#ffca19;stop-opacity:0"/></linearGradient></defs></svg>