<?xml version="1.0" encoding="UTF-8" standalone="no"?><!DOCTYPE svg PUBLIC "-//W3C//DTD SVG 1.1//EN" "http://www.w3.org/Graphics/SVG/1.1/DTD/svg11.dtd"><svg width="100%" height="100%" viewBox="0 0 33350 18759" version="1.1" xmlns="http://www.w3.org/2000/svg" xmlns:xlink="http://www.w3.org/1999/xlink" xml:space="preserve" xmlns:serif="http://www.serif.com/" style="fill-rule:evenodd;clip-rule:evenodd;stroke-linecap:round;stroke-linejoin:round;stroke-miterlimit:1.5;"><path id="bg3" d="M13.607,17164.7l-9.191,-17160.6l24177.1,0c0,0 957.238,2191.2 3915.51,3133.84c2958.27,942.643 4941.31,849.479 5240.48,4394.27l9.44,11009.4c-295.333,-162.901 -634.757,-255.64 -995.671,-255.64c-125.073,0 -247.566,11.137 -366.528,32.469c-272.955,49.24 -552.307,-42.77 -742.573,-244.581c-376.838,-399.235 -910.841,-648.565 -1502.62,-648.565c-347.156,0 -674.428,85.803 -961.748,237.34c-356.974,188.182 -774.297,226.082 -1159.33,105.289c-456.453,-143.146 -941.89,-220.331 -1445.21,-220.331c-945.952,0 -1828.73,272.633 -2573.98,743.543c-256.104,161.693 -580.546,168.808 -843.493,18.498c-302.339,-173.129 -652.462,-272.23 -1025.55,-272.23c-564.339,0 -1076.14,226.746 -1449.17,594.012c-124.74,122.915 -311.272,158.515 -472.512,90.181c-247.339,-104.618 -519.232,-162.578 -804.555,-162.578c-199.856,0 -393.123,28.437 -575.97,81.483c-333.765,97.09 -691.816,65.353 -1003.3,-88.932c-485.524,-240.162 -1032.12,-375.103 -1609.99,-375.103c-299.576,0 -590.748,36.266 -869.372,104.648c-323.771,79.526 -666.138,11.519 -934.934,-185.712c-798.435,-585.15 -1783.4,-930.753 -2848.45,-930.753c-800.386,0 -1555.54,195.182 -2220.37,540.443c-611.719,317.252 -1345.26,289.131 -1930.9,-74.022c-477.535,-295.697 -1040.47,-466.421 -1642.96,-466.421c-691.66,0 -1331.18,224.998 -1849.33,605.767c-492.531,361.808 -1162.98,361.808 -1655.51,-0.001c-518.147,-380.768 -1157.67,-605.766 -1849.33,-605.766Z" style="fill:url(#_Linear1);stroke:#000;stroke-width:4.17px;"/><defs><linearGradient id="_Linear1" x1="0" y1="0" x2="1" y2="0" gradientUnits="userSpaceOnUse" gradientTransform="matrix(-17250,19226.6,-10772,-9664.56,21358.6,2197.01)"><stop offset="0" style="stop-color:#e51937;stop-opacity:1"/><stop offset="0.5" style="stop-color:#ea3e31;stop-opacity:1"/><stop offset="1" style="stop-color:#fbac1e;stop-opacity:1"/></linearGradient></defs></svg>