<?xml version="1.0" encoding="UTF-8" standalone="no"?><!DOCTYPE svg PUBLIC "-//W3C//DTD SVG 1.1//EN" "http://www.w3.org/Graphics/SVG/1.1/DTD/svg11.dtd"><svg width="100%" height="100%" viewBox="0 0 2271 871" version="1.1" xmlns="http://www.w3.org/2000/svg" xmlns:xlink="http://www.w3.org/1999/xlink" xml:space="preserve" xmlns:serif="http://www.serif.com/" style="fill-rule:evenodd;clip-rule:evenodd;stroke-linejoin:round;stroke-miterlimit:2;"><g id="logo-final"><path d="M2269,24.334c0,-5.886 -2.338,-11.531 -6.5,-15.692c-4.162,-4.162 -9.807,-6.501 -15.693,-6.501c-234.345,0 -2245.72,0 -2245.72,0l0,836.208c0,7.526 2.99,14.743 8.311,20.065c5.322,5.321 12.539,8.311 20.065,8.311l2154.81,0c46.795,0 84.73,-37.935 84.73,-84.73c0,-191.922 0,-651.407 0,-757.661Z" style="fill:none;"/><path d="M206.778,175.236l-42.658,0l0,-60.692l161.614,0l0,60.692l-42.658,0l0,170.632l-76.298,0l0,-170.632Z" style="fill:#fff;fill-rule:nonzero;"/><path d="M337.873,114.544l79.767,0c14.797,0 28.496,1.966 41.097,5.896c12.601,3.931 23.525,9.711 32.773,17.341c9.249,7.63 16.474,17.051 21.676,28.265c5.202,11.213 7.803,24.103 7.803,38.669c0,11.561 -1.618,21.387 -4.855,29.479c-3.237,8.093 -6.821,14.798 -10.751,20.116c-4.624,6.011 -9.826,11.098 -15.607,15.259l43.352,76.299l-86.703,0l-34.681,-58.611l0,58.611l-73.871,0l0,-231.324Zm73.871,113.755l3.815,0c8.786,0 16.242,-1.966 22.369,-5.896c6.127,-3.931 9.191,-10.52 9.191,-19.768c0,-9.249 -3.064,-15.838 -9.191,-19.769c-6.127,-3.93 -13.583,-5.896 -22.369,-5.896l-3.815,0l0,51.329Z" style="fill:#fff;fill-rule:nonzero;"/><path d="M608.733,114.544l55.49,0l87.743,231.324l-72.83,0l-7.63,-20.809l-70.056,0l-7.63,20.809l-72.831,0l87.744,-231.324Zm43.351,159.534l-15.606,-40.577l-15.607,40.577l31.213,0Z" style="fill:#fff;fill-rule:nonzero;"/><path d="M777.284,114.544l39.189,100.576l39.537,-100.576l80.807,0l-90.171,231.324l-59.999,0l-90.171,-231.324l80.808,0Z" style="fill:#fff;fill-rule:nonzero;"/><path d="M942.019,114.544l136.297,0l0,60.692l-62.426,0l0,25.664l61.386,0l0,57.571l-61.386,0l0,26.705l64.854,0l0,60.692l-138.725,0l0,-231.324Z" style="fill:#fff;fill-rule:nonzero;"/><path d="M1101.55,114.544l76.992,0l0,170.632l63.813,0l0,60.692l-140.805,0l0,-231.324Z" style="fill:#fff;fill-rule:nonzero;"/><path d="M1058.79,542.122l90.518,0c11.56,0 22.138,1.329 31.733,3.988c9.596,2.659 17.803,6.589 24.624,11.792c6.821,5.202 12.138,11.676 15.953,19.421c3.815,7.746 5.723,16.821 5.723,27.225c0,7.399 -0.925,13.699 -2.775,18.901c-1.849,5.202 -3.815,9.537 -5.896,13.006c-2.543,4.161 -5.433,7.629 -8.67,10.404c5.087,3.237 9.711,7.399 13.873,12.485c3.468,4.393 6.647,9.942 9.537,16.647c2.89,6.705 4.335,14.913 4.335,24.624c0,11.098 -1.965,21.155 -5.896,30.172c-3.93,9.018 -9.537,16.705 -16.82,23.063c-7.283,6.359 -16.185,11.214 -26.705,14.567c-10.52,3.352 -22.253,5.028 -35.201,5.028l-94.333,0l0,-231.323Zm79.767,176.874c17.572,0 26.358,-6.705 26.358,-20.115c0,-13.41 -8.786,-20.115 -26.358,-20.115l-8.324,0l0,40.23l8.324,0Zm17.341,-106.471c0,-10.636 -5.781,-15.954 -17.341,-15.954l-8.324,0l0,31.907l8.324,0c11.56,0 17.341,-5.318 17.341,-15.953Z" style="fill:#fff;fill-rule:nonzero;"/><path d="M1348.03,779.341c-14.566,0 -27.745,-1.85 -39.536,-5.549c-11.792,-3.699 -21.849,-9.248 -30.173,-16.647c-8.323,-7.399 -14.739,-16.762 -19.248,-28.092c-4.508,-11.329 -6.763,-24.623 -6.763,-39.883l0,-147.048l73.871,0l0,143.927c0,8.092 1.676,14.277 5.029,18.554c3.352,4.277 8.959,6.416 16.82,6.416c7.861,0 13.468,-2.139 16.821,-6.416c3.352,-4.277 5.029,-10.462 5.029,-18.554l0,-143.927l74.217,0l0,147.048c0,15.26 -2.254,28.554 -6.763,39.883c-4.508,11.33 -10.982,20.693 -19.421,28.092c-8.439,7.399 -18.554,12.948 -30.346,16.647c-11.792,3.699 -24.971,5.549 -39.537,5.549Z" style="fill:#fff;fill-rule:nonzero;"/><path d="M1467.33,773.445l0,-231.323l64.16,0c21.733,0 41.097,2.427 58.091,7.283c16.994,4.855 31.329,12.138 43.005,21.849c11.676,9.711 20.577,21.791 26.704,36.242c6.127,14.45 9.191,31.155 9.191,50.114c0,18.959 -3.064,35.664 -9.191,50.114c-6.127,14.451 -15.028,26.532 -26.704,36.242c-11.676,9.711 -26.011,17.052 -43.005,22.023c-16.994,4.971 -36.358,7.456 -58.091,7.456l-64.16,0Zm73.871,-65.894c17.34,0 30.75,-4.104 40.23,-12.312c9.479,-8.208 14.219,-20.751 14.219,-37.629c0,-16.878 -4.74,-29.363 -14.219,-37.456c-9.48,-8.092 -22.89,-12.138 -40.23,-12.138l0,99.535Z" style="fill:#fff;fill-rule:nonzero;"/><path d="M1687.56,773.445l0,-231.323l64.161,0c21.733,0 41.097,2.427 58.091,7.283c16.993,4.855 31.328,12.138 43.004,21.849c11.676,9.711 20.578,21.791 26.705,36.242c6.127,14.45 9.19,31.155 9.19,50.114c0,18.959 -3.063,35.664 -9.19,50.114c-6.127,14.451 -15.029,26.532 -26.705,36.242c-11.676,9.711 -26.011,17.052 -43.004,22.023c-16.994,4.971 -36.358,7.456 -58.091,7.456l-64.161,0Zm73.871,-65.894c17.341,0 30.751,-4.104 40.23,-12.312c9.48,-8.208 14.22,-20.751 14.22,-37.629c0,-16.878 -4.74,-29.363 -14.22,-37.456c-9.479,-8.092 -22.889,-12.138 -40.23,-12.138l0,99.535Z" style="fill:#fff;fill-rule:nonzero;"/><path d="M1960.5,673.91l-71.79,-131.788l82.195,0l26.704,48.9l26.358,-48.9l82.194,0l-71.79,131.788l0,99.535l-73.871,0l0,-99.535Z" style="fill:#fff;fill-rule:nonzero;"/><path d="M1754.24,450.058c22.725,0 44.52,-9.028 60.589,-25.097c78.875,-78.875 322.101,-322.101 416.328,-416.327c6.339,-6.339 15.872,-8.235 24.154,-4.805c8.282,3.431 13.682,11.512 13.682,20.477l0,758.196c0,22.337 -8.873,43.76 -24.668,59.555c-15.795,15.794 -37.217,24.668 -59.555,24.668l-2155.18,0c-12.343,0 -23.263,-7.999 -26.984,-19.768c-3.722,-11.769 0.612,-24.592 10.711,-31.689c114.882,-80.739 336.025,-236.157 449.185,-315.685c45.859,-32.23 100.546,-49.525 156.599,-49.525l1135.14,0Zm493.92,332.444l0,-758.196c0,-0.538 -0.324,-1.023 -0.822,-1.229c-0.497,-0.206 -1.069,-0.093 -1.45,0.288c-94.226,94.226 -337.452,337.453 -416.327,416.327c-19.977,19.977 -47.07,31.199 -75.321,31.199l-1135.14,0c-51.765,0 -102.269,15.972 -144.62,45.737c-113.16,79.528 -334.303,234.946 -449.185,315.685c-2.665,1.873 -3.809,5.256 -2.827,8.362c0.982,3.106 3.864,5.216 7.121,5.216l2155.18,0c16.812,0 32.936,-6.678 44.823,-18.566c11.888,-11.888 18.567,-28.011 18.567,-44.823Z" style="fill:#fff;"/></g></svg>