<?xml version="1.0" encoding="UTF-8" standalone="no"?><!DOCTYPE svg PUBLIC "-//W3C//DTD SVG 1.1//EN" "http://www.w3.org/Graphics/SVG/1.1/DTD/svg11.dtd"><svg width="100%" height="100%" viewBox="0 0 2271 871" version="1.1" xmlns="http://www.w3.org/2000/svg" xmlns:xlink="http://www.w3.org/1999/xlink" xml:space="preserve" xmlns:serif="http://www.serif.com/" style="fill-rule:evenodd;clip-rule:evenodd;stroke-linejoin:round;stroke-miterlimit:2;"><g id="logo-nr"><path d="M2268.44,25.36c0,-5.886 -2.338,-11.531 -6.5,-15.693c-4.162,-4.162 -9.807,-6.5 -15.693,-6.5c-234.345,0 -2245.72,0 -2245.72,0l0,836.208c0,7.525 2.99,14.743 8.311,20.064c5.322,5.322 12.539,8.311 20.065,8.311l2154.81,0c46.795,0 84.73,-37.935 84.73,-84.73c0,-191.922 0,-651.407 0,-757.66Z"/><path d="M206.224,176.262l-42.657,0l0,-60.692l161.614,0l0,60.692l-42.658,0l0,170.631l-76.299,0l0,-170.631Z" style="fill:#fff;fill-rule:nonzero;"/><path d="M337.319,115.57l79.767,0c14.798,0 28.497,1.965 41.097,5.896c12.601,3.93 23.526,9.71 32.774,17.34c9.248,7.63 16.474,17.052 21.676,28.265c5.202,11.214 7.803,24.104 7.803,38.67c0,11.56 -1.618,21.387 -4.855,29.479c-3.237,8.092 -6.821,14.797 -10.751,20.115c-4.625,6.011 -9.827,11.098 -15.607,15.26l43.352,76.298l-86.703,0l-34.682,-58.611l0,58.611l-73.871,0l0,-231.323Zm73.871,113.754l3.815,0c8.786,0 16.243,-1.965 22.37,-5.896c6.127,-3.93 9.19,-10.52 9.19,-19.768c0,-9.248 -3.063,-15.838 -9.19,-19.768c-6.127,-3.931 -13.584,-5.896 -22.37,-5.896l-3.815,0l0,51.328Z" style="fill:#fff;fill-rule:nonzero;"/><path d="M608.18,115.57l55.49,0l87.743,231.323l-72.831,0l-7.629,-20.808l-70.056,0l-7.63,20.808l-72.831,0l87.744,-231.323Zm43.351,159.533l-15.606,-40.577l-15.607,40.577l31.213,0Z" style="fill:#fff;fill-rule:nonzero;"/><path d="M776.73,115.57l39.19,100.575l39.537,-100.575l80.807,0l-90.171,231.323l-59.999,0l-90.171,-231.323l80.807,0Z" style="fill:#fff;fill-rule:nonzero;"/><path d="M941.466,115.57l136.297,0l0,60.692l-62.426,0l0,25.664l61.386,0l0,57.571l-61.386,0l0,26.704l64.854,0l0,60.692l-138.725,0l0,-231.323Z" style="fill:#fff;fill-rule:nonzero;"/><path d="M1101,115.57l76.993,0l0,170.631l63.813,0l0,60.692l-140.806,0l0,-231.323Z" style="fill:#fff;fill-rule:nonzero;"/><path d="M1058.24,543.147l90.518,0c11.56,0 22.138,1.33 31.733,3.988c9.595,2.659 17.803,6.59 24.624,11.792c6.82,5.202 12.138,11.676 15.953,19.422c3.815,7.745 5.722,16.82 5.722,27.224c0,7.399 -0.924,13.699 -2.774,18.902c-1.85,5.202 -3.815,9.537 -5.896,13.005c-2.543,4.162 -5.433,7.63 -8.67,10.404c5.086,3.237 9.711,7.399 13.872,12.486c3.468,4.393 6.648,9.941 9.538,16.647c2.89,6.705 4.335,14.912 4.335,24.623c0,11.098 -1.965,21.156 -5.896,30.173c-3.931,9.017 -9.537,16.705 -16.82,23.063c-7.283,6.358 -16.185,11.213 -26.705,14.566c-10.52,3.352 -22.254,5.029 -35.201,5.029l-94.333,0l0,-231.324Zm79.767,176.874c17.571,0 26.357,-6.705 26.357,-20.115c0,-13.41 -8.786,-20.115 -26.357,-20.115l-8.324,0l0,40.23l8.324,0Zm17.34,-106.471c0,-10.636 -5.78,-15.953 -17.34,-15.953l-8.324,0l0,31.906l8.324,0c11.56,0 17.34,-5.317 17.34,-15.953Z" style="fill:#fff;fill-rule:nonzero;"/><path d="M1347.48,780.367c-14.566,0 -27.745,-1.85 -39.537,-5.549c-11.791,-3.7 -21.849,-9.249 -30.172,-16.647c-8.324,-7.399 -14.74,-16.763 -19.248,-28.092c-4.509,-11.329 -6.763,-24.624 -6.763,-39.884l0,-147.048l73.871,0l0,143.927c0,8.092 1.676,14.277 5.029,18.555c3.352,4.277 8.959,6.416 16.82,6.416c7.861,0 13.468,-2.139 16.82,-6.416c3.353,-4.278 5.029,-10.463 5.029,-18.555l0,-143.927l74.218,0l0,147.048c0,15.26 -2.254,28.555 -6.763,39.884c-4.508,11.329 -10.982,20.693 -19.421,28.092c-8.439,7.398 -18.555,12.947 -30.346,16.647c-11.792,3.699 -24.971,5.549 -39.537,5.549Z" style="fill:#fff;fill-rule:nonzero;"/><path d="M1466.78,774.471l0,-231.324l64.161,0c21.733,0 41.097,2.428 58.091,7.283c16.993,4.856 31.328,12.139 43.004,21.849c11.676,9.711 20.578,21.792 26.705,36.242c6.127,14.451 9.19,31.155 9.19,50.114c0,18.96 -3.063,35.664 -9.19,50.115c-6.127,14.45 -15.029,26.531 -26.705,36.242c-11.676,9.71 -26.011,17.051 -43.004,22.022c-16.994,4.971 -36.358,7.457 -58.091,7.457l-64.161,0Zm73.871,-65.895c17.341,0 30.751,-4.104 40.231,-12.311c9.479,-8.208 14.219,-20.751 14.219,-37.63c0,-16.878 -4.74,-29.363 -14.219,-37.455c-9.48,-8.092 -22.89,-12.139 -40.231,-12.139l0,99.535Z" style="fill:#fff;fill-rule:nonzero;"/><path d="M1687.01,774.471l0,-231.324l64.16,0c21.734,0 41.097,2.428 58.091,7.283c16.994,4.856 31.329,12.139 43.005,21.849c11.676,9.711 20.577,21.792 26.704,36.242c6.127,14.451 9.191,31.155 9.191,50.114c0,18.96 -3.064,35.664 -9.191,50.115c-6.127,14.45 -15.028,26.531 -26.704,36.242c-11.676,9.71 -26.011,17.051 -43.005,22.022c-16.994,4.971 -36.357,7.457 -58.091,7.457l-64.16,0Zm73.871,-65.895c17.341,0 30.751,-4.104 40.23,-12.311c9.48,-8.208 14.219,-20.751 14.219,-37.63c0,-16.878 -4.739,-29.363 -14.219,-37.455c-9.479,-8.092 -22.889,-12.139 -40.23,-12.139l0,99.535Z" style="fill:#fff;fill-rule:nonzero;"/><path d="M1959.95,674.936l-71.79,-131.789l82.194,0l26.705,48.901l26.358,-48.901l82.194,0l-71.79,131.789l0,99.535l-73.871,0l0,-99.535Z" style="fill:#fff;fill-rule:nonzero;"/><path d="M2268.44,25.331l0,758.196c0,22.338 -8.874,43.76 -24.668,59.555c-15.795,15.795 -37.218,24.668 -59.555,24.668l-2155.18,0c-12.343,0 -23.263,-7.999 -26.985,-19.768c-3.722,-11.768 0.613,-24.592 10.711,-31.689c114.882,-80.738 336.026,-236.157 449.186,-315.685c45.859,-32.23 100.546,-49.524 156.598,-49.525l1135.14,0c22.726,0 44.521,-9.027 60.59,-25.097c78.875,-78.874 322.101,-322.101 416.327,-416.327c6.339,-6.339 15.872,-8.235 24.155,-4.804c8.282,3.43 13.682,11.512 13.682,20.476Zm-22.424,-1.305c-0.253,0.051 -0.491,0.174 -0.681,0.364c-94.227,94.227 -337.453,337.453 -416.327,416.328c-19.977,19.976 -47.071,31.199 -75.322,31.199l-1135.14,0c-51.764,0 -102.268,15.972 -144.619,45.736c-113.16,79.528 -334.304,234.947 -449.186,315.685c-2.664,1.873 -3.808,5.257 -2.826,8.362c0.982,3.106 3.863,5.217 7.121,5.217l2155.18,0c16.812,0 32.935,-6.679 44.823,-18.566c11.888,-11.888 18.566,-28.012 18.566,-44.824l0,-758.196c0,-0.538 -0.324,-1.023 -0.821,-1.229c-0.124,-0.051 -0.253,-0.083 -0.383,-0.095l-0.386,0.019Z" style="fill:url(#_Linear1);"/></g><defs><linearGradient id="_Linear1" x1="0" y1="0" x2="1" y2="0" gradientUnits="userSpaceOnUse" gradientTransform="matrix(1890.66,-664.811,664.811,1890.66,613.401,687.566)"><stop offset="0" style="stop-color:#e51937;stop-opacity:1"/><stop offset="0.51" style="stop-color:#e93133;stop-opacity:1"/><stop offset="0.68" style="stop-color:#f26c29;stop-opacity:1"/><stop offset="0.83" style="stop-color:#fbac1e;stop-opacity:1"/><stop offset="0.92" style="stop-color:#fcb21d;stop-opacity:0.78"/><stop offset="1" style="stop-color:#ffca19;stop-opacity:0"/></linearGradient></defs></svg>